<?xml version="1.0" standalone="no"?>
<!DOCTYPE svg PUBLIC "-//W3C//DTD SVG 20010904//EN"
 "http://www.w3.org/TR/2001/REC-SVG-20010904/DTD/svg10.dtd">
<svg version="1.0" xmlns="http://www.w3.org/2000/svg"
 width="904.000000pt" height="904.000000pt" viewBox="0 0 904.000000 904.000000"
 preserveAspectRatio="xMidYMid meet">
<metadata>
Created by potrace 1.14, written by Peter Selinger 2001-2017
</metadata>
<g transform="translate(0.000000,904.000000) scale(0.100000,-0.100000)"
fill="#000000" stroke="none">
<path d="M1707 8324 c-1 -1 -22 -5 -47 -8 -64 -9 -102 -16 -125 -23 -11 -4
-27 -8 -35 -9 -15 -3 -70 -25 -130 -52 -19 -8 -38 -15 -42 -14 -5 1 -8 -2 -8
-8 0 -5 -5 -10 -11 -10 -14 0 -141 -82 -199 -129 -164 -132 -277 -289 -339
-476 -28 -84 -34 -112 -46 -211 -3 -21 -7 -39 -9 -42 -2 -2 0 -16 4 -32 4 -16
6 -31 2 -34 -12 -12 3 -163 25 -251 8 -33 16 -73 19 -90 2 -16 9 -34 14 -39 6
-6 10 -16 10 -23 0 -24 82 -187 128 -256 59 -89 172 -201 264 -263 40 -27 75
-49 78 -50 3 0 40 -17 83 -38 43 -20 97 -41 120 -47 162 -42 230 -52 332 -52
95 0 185 7 185 13 0 3 8 6 18 7 35 3 147 35 161 46 8 7 15 11 15 9 3 -10 114
42 191 88 33 20 68 39 78 43 9 3 17 11 17 17 0 5 5 10 11 10 9 0 153 102 169
120 30 33 216 163 253 176 9 3 17 10 17 14 0 8 38 23 53 21 4 -1 7 3 7 7 0 13
213 102 244 102 8 0 17 4 20 9 4 5 14 8 24 6 9 -1 23 2 30 8 6 5 12 7 12 4 0
-3 15 -1 32 4 80 23 323 32 445 16 186 -24 386 -96 589 -212 111 -64 303 -224
381 -318 26 -32 113 -154 132 -187 58 -99 132 -283 146 -361 3 -18 8 -36 10
-39 3 -4 7 -25 10 -46 3 -22 8 -45 11 -53 20 -60 26 -492 7 -532 -6 -13 -27
-63 -47 -110 -44 -106 -92 -207 -131 -274 -45 -78 -151 -238 -174 -262 -12
-12 -21 -26 -21 -30 0 -4 -20 -29 -43 -54 -71 -77 -130 -150 -163 -198 -43
-64 -95 -161 -86 -161 4 0 2 -4 -3 -8 -10 -6 -49 -114 -50 -137 0 -5 -4 -16
-8 -22 -5 -7 -6 -13 -3 -13 2 0 0 -15 -5 -32 -6 -18 -12 -89 -14 -158 -3 -115
0 -145 31 -299 15 -76 98 -267 144 -332 11 -15 20 -30 20 -34 0 -12 123 -158
169 -199 25 -23 53 -49 63 -59 10 -9 20 -17 23 -17 4 0 70 -42 90 -57 38 -30
233 -102 320 -118 148 -27 363 -25 505 6 288 62 530 241 666 489 10 19 21 37
25 40 3 3 15 30 28 60 12 30 26 64 31 75 9 19 46 146 55 190 37 168 23 380
-37 555 -35 101 -128 274 -183 337 -30 35 -35 43 -35 53 0 5 -4 10 -8 10 -17
0 -272 364 -272 388 0 6 -3 12 -7 14 -20 8 -152 308 -137 308 4 0 2 6 -3 13
-9 10 -17 36 -29 82 -20 86 -20 258 1 420 16 128 75 366 97 389 4 6 8 16 8 23
0 14 78 178 111 233 27 45 101 148 129 180 22 25 146 163 166 184 20 22 99
142 120 183 26 49 69 164 79 208 4 17 9 39 12 50 3 11 7 74 8 140 3 102 -9
214 -28 280 -22 71 -48 147 -55 162 -6 10 -25 50 -44 88 -48 97 -55 109 -120
196 -52 70 -71 90 -151 163 -73 67 -225 152 -321 180 -31 9 -58 17 -61 17 -2
0 -19 5 -37 10 -40 12 -109 22 -160 23 -21 1 -38 3 -38 6 0 9 -210 -3 -275
-16 -41 -8 -44 -9 -95 -24 -25 -7 -51 -15 -58 -16 -55 -10 -339 -174 -424
-243 -57 -46 -77 -61 -88 -61 -6 0 -8 -4 -5 -10 3 -5 2 -10 -3 -10 -6 0 -30
-16 -54 -35 -61 -49 -58 -47 -110 -83 -26 -18 -51 -32 -57 -32 -6 0 -11 -4
-11 -8 0 -19 -233 -117 -346 -146 -131 -34 -180 -39 -354 -40 -184 0 -289 14
-435 60 -102 32 -282 119 -321 155 -11 10 -23 19 -27 19 -4 0 -64 44 -135 98
-71 53 -140 105 -153 115 -97 70 -151 106 -194 127 -27 14 -56 31 -63 38 -7 6
-18 12 -23 12 -5 0 -25 7 -45 15 -19 8 -38 15 -42 16 -4 0 -14 5 -23 10 -9 4
-27 10 -40 13 -13 3 -49 12 -79 20 -30 9 -80 18 -110 22 -56 6 -208 12 -213 8z"/>
<path d="M3657 6514 c-1 -1 -45 -4 -97 -8 -52 -3 -106 -8 -120 -11 -14 -3 -34
-7 -45 -9 -46 -9 -151 -38 -160 -44 -5 -4 -16 -7 -23 -8 -7 -1 -50 -21 -95
-43 -176 -88 -316 -219 -415 -389 -44 -76 -103 -202 -105 -224 -1 -10 -4 -18
-7 -18 -6 0 -30 -81 -36 -120 -2 -8 -6 -31 -10 -50 -10 -51 -12 -224 -4 -273
5 -23 11 -57 14 -76 15 -103 117 -346 187 -447 16 -23 29 -47 29 -53 0 -6 5
-11 10 -11 6 0 10 -7 10 -15 0 -8 4 -15 8 -15 4 0 15 -12 24 -27 9 -16 25 -38
35 -49 10 -12 41 -47 68 -79 28 -32 57 -66 65 -77 8 -11 30 -36 47 -56 18 -20
38 -49 45 -64 7 -16 16 -28 20 -28 5 0 8 -7 8 -15 0 -8 4 -15 9 -15 15 0 93
-217 106 -295 1 -11 8 -38 13 -60 18 -65 22 -112 27 -280 4 -139 -1 -208 -20
-302 -3 -13 -8 -35 -11 -50 -12 -59 -58 -192 -95 -271 -65 -142 -162 -289
-279 -422 -30 -35 -65 -75 -78 -89 -60 -69 -155 -230 -193 -326 -53 -136 -75
-309 -57 -450 13 -103 16 -124 22 -133 3 -5 7 -21 10 -36 6 -35 24 -90 44
-141 27 -66 118 -241 132 -255 3 -3 18 -23 35 -45 54 -73 168 -178 234 -215
14 -8 28 -17 31 -20 26 -26 210 -101 295 -120 28 -7 59 -14 70 -17 11 -2 34
-6 50 -8 17 -2 48 -7 70 -10 49 -8 191 -8 225 -1 14 3 39 8 55 12 42 8 130 37
195 64 122 49 343 158 348 172 2 4 12 8 22 8 10 0 21 4 25 9 3 6 18 16 33 24
46 24 106 59 134 78 14 11 29 19 32 19 3 0 36 19 74 43 37 23 77 47 88 54 10
6 66 41 124 76 247 153 292 167 529 163 181 -4 234 -11 376 -53 129 -38 328
-135 475 -231 100 -66 354 -252 358 -264 2 -4 8 -8 12 -8 5 0 28 -13 52 -29
38 -25 167 -91 193 -98 6 -1 49 -14 97 -27 121 -34 234 -47 276 -34 16 6 21 5
16 -4 -4 -6 -3 -8 3 -5 6 4 35 9 65 12 65 6 79 9 138 25 25 7 50 13 55 15 6 1
23 7 38 13 16 7 32 12 36 12 20 0 227 115 251 140 3 3 23 18 45 34 53 39 245
236 245 252 0 7 3 14 8 16 11 5 52 66 52 78 0 5 5 10 12 10 6 0 8 3 5 7 -4 3
-1 16 6 27 8 12 22 44 31 71 10 28 21 57 24 65 8 24 12 39 28 135 15 85 8 246
-16 350 -7 28 -13 58 -15 67 -2 10 -20 58 -40 109 -109 272 -320 518 -546 636
-97 51 -142 66 -294 99 -16 4 -143 14 -180 15 -40 1 -164 -13 -226 -26 -199
-42 -397 -143 -539 -275 -40 -37 -120 -109 -160 -143 -8 -8 -31 -24 -50 -37
-19 -13 -37 -27 -40 -30 -3 -3 -23 -15 -45 -27 -22 -11 -57 -30 -77 -41 -20
-12 -60 -30 -90 -42 -29 -12 -62 -26 -73 -30 -211 -87 -534 -110 -775 -54 -36
9 -72 17 -80 19 -54 12 -87 23 -188 61 -210 81 -310 136 -398 222 -327 316
-501 695 -507 1102 -2 140 9 230 49 393 2 9 6 26 9 38 14 66 106 267 168 369
55 90 163 231 242 315 78 83 163 206 200 290 14 33 30 69 35 80 12 25 39 132
47 188 9 53 8 228 -1 287 -43 289 -260 620 -521 795 -149 99 -304 150 -483
159 -29 1 -54 1 -55 0z"/>
</g>
</svg>
